<?xml version="1.0" encoding="utf-8"?>
<!-- Generator: Adobe Illustrator 16.0.0, SVG Export Plug-In . SVG Version: 6.00 Build 0)  -->
<!DOCTYPE svg PUBLIC "-//W3C//DTD SVG 1.0//EN" "http://www.w3.org/TR/2001/REC-SVG-20010904/DTD/svg10.dtd">
<svg version="1.0" id="Layer_1" xmlns="http://www.w3.org/2000/svg" xmlns:xlink="http://www.w3.org/1999/xlink" x="0px" y="0px"
	 width="100px" height="100px" viewBox="0 0 100 100" enable-background="new 0 0 100 100" xml:space="preserve">
<path fill="#424242" d="M20,43.334v40C20,86.999,23,90,26.667,90h46.665C76.998,90,80,86.999,80,83.333v-40
	c0-3.666-3.002-6.666-6.669-6.666H36.667V30c0-7.363,5.97-13.333,13.333-13.333c7.362,0,13.331,5.97,13.331,13.333H70
	c0-11.044-8.955-20-20-20c-11.044,0-20,8.956-20,20v6.667h-3.333C23,36.667,20,39.667,20,43.334z"/>
<rect x="26.667" y="43.333" fill="#F5F5F5" width="46.665" height="26.664"/>
<rect x="26.667" y="76.667" fill="#F5F5F5" width="46.665" height="6.666"/>
<rect x="33.332" y="50" fill="#424242" width="6.668" height="13.334"/>
<rect x="46.667" y="50" fill="#424242" width="6.665" height="13.334"/>
<rect x="60" y="50" fill="#424242" width="6.666" height="13.334"/>
</svg>
